<?xml version="1.0" encoding="UTF-8"?>
<svg width="1200pt" height="1200pt" version="1.1" viewBox="0 0 1200 1200" xmlns="http://www.w3.org/2000/svg">
 <path d="m896.04 182.04h34.801v835.8h-34.801z"/>
 <path d="m303.96 1017.8h592.08v34.922h-592.08z"/>
 <path d="m826.32 251.64h34.801v139.32h-34.801z"/>
 <path d="m756.72 600v383.04h104.4v-383.04zm69.602 348.24h-34.801v-313.44h34.801z"/>
 <path d="m756.72 460.68v104.52h104.4v-104.52zm69.602 69.602h-34.801v-34.801h34.801z"/>
 <path d="m373.56 390.96h452.76v34.922h-452.76z"/>
 <path d="m617.4 878.64v104.4h104.4v-104.4zm69.602 69.602h-34.801v-34.801h34.801z"/>
 <path d="m617.4 739.32v104.4h104.4v-104.4zm69.602 69.602h-34.801v-34.801h34.801z"/>
 <path d="m617.4 600v104.4h104.4v-104.4zm69.602 69.602h-34.801v-34.801h34.801z"/>
 <path d="m617.4 460.68v104.52h104.4v-104.52zm69.602 69.602h-34.801v-34.801h34.801z"/>
 <path d="m478.08 878.64v104.4h104.52v-104.4zm69.602 69.602h-34.801v-34.801h34.801z"/>
 <path d="m478.08 739.32v104.4h104.52v-104.4zm69.602 69.602h-34.801v-34.801h34.801z"/>
 <path d="m478.08 600v104.4h104.52v-104.4zm69.602 69.602h-34.801v-34.801h34.801z"/>
 <path d="m478.08 460.68v104.52h104.52v-104.52zm69.602 69.602h-34.801v-34.801h34.801z"/>
 <path d="m373.56 216.84h452.76v34.801h-452.76z"/>
 <path d="m338.76 878.64v104.4h104.52v-104.4zm69.602 69.602h-34.801v-34.801h34.801z"/>
 <path d="m338.76 739.32v104.4h104.52v-104.4zm69.602 69.602h-34.801v-34.801h34.801z"/>
 <path d="m338.76 600v104.4h104.52v-104.4zm69.602 69.602h-34.801v-34.801h34.801z"/>
 <path d="m338.76 460.68v104.52h104.52v-104.52zm69.602 69.602h-34.801v-34.801h34.801z"/>
 <path d="m338.76 251.64h34.801v139.32h-34.801z"/>
 <path d="m303.96 147.24h592.08v34.801h-592.08z"/>
 <path d="m269.16 182.04h34.801v835.8h-34.801z"/>
</svg>
