<?xml version="1.0" encoding="UTF-8"?>
<svg width="1200pt" height="1200pt" version="1.1" viewBox="0 0 1200 1200" xmlns="http://www.w3.org/2000/svg">
 <path d="m1070.6 552.96h-47.039v-23.52h-47.039v-23.52h-47.039v23.52h-47.039v47.039h117.6v23.52h-117.6v-23.52h-23.52v-47.039h23.52v-23.52h47.039v-23.641h-47.039v-23.52h-541.19v-23.52h-23.52v-23.52h-23.52v-23.52h-23.52v-23.52h-23.52v-23.52l-23.652-0.003906v-23.52h-23.52v-23.52h-70.559v23.52h-23.523v94.078h23.52v70.559h23.52v70.68h23.52v23.52l0.003907 23.523h47.039v23.52h47.16v23.52h47.039v23.52h47.039v23.52h164.64v-23.52h188.28v23.52h23.52v23.52h23.52v-23.52h188.28l23.531 0.003906h70.559v-23.52h23.52v-23.52h23.52l0.003906-23.523v-47.039h-23.52zm-258.84-23.52v23.52h-23.52v23.52h-23.52v-23.52h-23.52v-23.52h23.52v-23.52h23.52v23.52zm-517.56 23.52h23.52v-23.52h-23.52v-23.52h23.52v23.52h23.52v23.52h-23.52v23.52h-23.52zm423.48-23.52v23.52h-23.52v23.52h-23.52v-23.52h-23.52v-23.52h23.52v-23.52h23.52v23.52zm-94.082 0v23.52h-23.52v23.52h-23.52v-23.52h-23.52v-23.52h23.52v-23.52h23.52v23.52zm-94.199 0v23.52h-23.52v23.52h-23.52v-23.52h-23.52v-23.52h23.52v-23.52h23.52v23.52zm-94.078 0v23.52h-23.52v23.52h-23.52v-23.52h-23.52v-23.52h23.52v-23.52h23.52v23.52z"/>
 <path d="m764.7 529.44h23.52v23.52h-23.52z"/>
 <path d="m717.66 694.08h-164.64v23.52h-23.641v47.039h141.24v23.641h23.52v23.52h23.52v-47.16h23.52v-47.039h-23.52z"/>
 <path d="m670.62 529.44h23.52v23.52h-23.52z"/>
 <path d="m670.62 788.28h-141.24v23.52h-23.52v70.559h23.52v23.52h117.72v-23.52h23.52v-23.52h23.52v-47.039h-23.52z"/>
 <path d="m576.54 529.44h23.52v23.52h-23.52z"/>
 <path d="m482.34 529.44h23.52v23.52h-23.52z"/>
 <path d="m388.26 529.44h23.52v23.52h-23.52z"/>
</svg>
