<?xml version="1.0" encoding="UTF-8"?>
<svg id="Layer_1" xmlns="http://www.w3.org/2000/svg" version="1.1" viewBox="0 0 1200 1200">
  <!-- Generator: Adobe Illustrator 29.7.1, SVG Export Plug-In . SVG Version: 2.1.1 Build 8)  -->
  <path d="M990.5,637.2v-111.6h-37.2v74.4h-223.1v37.2h223.1v37.2h37.2v37.2h-260.3v37.2h260.3v37.2h-37.2v37.2h-223.1v37.2h148.7v74.4h-371.9v-37.2h-74.4v-297.5h74.4v-37.2h37.2v-74.4h37.2v-37.2h37.2v-223.1h-37.2v185.9h-37.2v37.2h-37.2v74.4h-37.2v37.2h-37.2v-37.2H172.4v483.4h260.3v-37.2h483.4v-74.4h37.2v-37.2h37.2v-37.2h37.2v-186h-37.2ZM358.3,971.9h-148.7v-409.1h185.9v409.1h-37.2Z"/>
  <polygon points="693 228.1 693 265.3 730.2 265.3 730.2 302.5 730.2 339.7 730.2 376.9 730.2 414.1 693 414.1 693 451.2 693 488.4 730.2 488.4 730.2 525.6 767.3 525.6 804.5 525.6 841.7 525.6 878.9 525.6 916.1 525.6 953.3 525.6 953.3 488.4 916.1 488.4 878.9 488.4 841.7 488.4 804.5 488.4 767.3 488.4 767.3 451.2 767.3 414.1 767.3 376.9 767.3 339.7 767.3 302.5 767.3 265.3 767.3 228.1 730.2 228.1 730.2 190.9 693 190.9 655.8 190.9 618.6 190.9 618.6 228.1 655.8 228.1 693 228.1"/>
  <rect x="321.1" y="860.3" width="37.2" height="37.2"/>
  <rect x="283.9" y="897.5" width="37.2" height="37.2"/>
  <rect x="283.9" y="823.1" width="37.2" height="37.2"/>
  <rect x="246.7" y="860.3" width="37.2" height="37.2"/>
</svg>