<?xml version="1.0" encoding="UTF-8"?>
<svg width="1200pt" height="1200pt" version="1.1" viewBox="0 0 1200 1200" xmlns="http://www.w3.org/2000/svg">
 <path d="m150 100v50h-50v800h50v49.996h150v-100h-50v-50h-50v-600h50v-50h100v-100z"/>
 <path d="m1050 450v-49.996h-50.004v-50.004h-49.996v-50h-50v-49.996h-50.004v-50.004h-400v50.004h-50v800h50v50.004h600v-50.004h50v-600zm-50.004 500h-49.996v49.996h-400v-49.996h-49.996v-600h49.996v-50h150v300h300zm-99.996-500v50.004h-100v-100h49.996v49.996z"/>
</svg>
