<?xml version="1.0" encoding="UTF-8"?>
<svg id="Layer_1" xmlns="http://www.w3.org/2000/svg" version="1.1" viewBox="0 0 1200 1200">
  <!-- Generator: Adobe Illustrator 29.7.1, SVG Export Plug-In . SVG Version: 2.1.1 Build 8)  -->
  <polygon points="913.7 871.9 913.7 913.8 913.7 955.6 913.7 997.4 871.9 997.4 830.1 997.4 788.2 997.4 746.4 997.4 704.6 997.4 662.8 997.4 620.9 997.4 579.1 997.4 537.2 997.4 495.4 997.4 453.6 997.4 411.8 997.4 369.9 997.4 328.1 997.4 286.3 997.4 286.3 955.6 286.3 913.8 286.3 871.9 244.4 871.9 244.4 913.8 244.4 955.6 244.4 997.4 244.4 1039.2 286.3 1039.2 328.1 1039.2 369.9 1039.2 411.8 1039.2 453.6 1039.2 495.4 1039.2 537.2 1039.2 579.1 1039.2 620.9 1039.2 662.8 1039.2 704.6 1039.2 746.4 1039.2 788.2 1039.2 830.1 1039.2 871.9 1039.2 913.7 1039.2 955.6 1039.2 955.6 997.4 955.6 955.6 955.6 913.8 955.6 871.9 913.7 871.9"/>
  <polygon points="871.9 830.1 871.9 871.9 913.7 871.9 913.7 830.1 913.7 788.2 913.7 746.4 871.9 746.4 871.9 788.2 871.9 830.1"/>
  <polygon points="830.1 411.8 830.1 453.6 871.9 453.6 871.9 411.8 871.9 369.9 830.1 369.9 830.1 411.8"/>
  <polygon points="662.8 746.4 620.9 746.4 579.1 746.4 537.2 746.4 495.4 746.4 453.6 746.4 453.6 788.2 495.4 788.2 537.2 788.2 579.1 788.2 620.9 788.2 662.8 788.2 704.6 788.2 746.4 788.2 746.4 746.4 704.6 746.4 662.8 746.4"/>
  <polygon points="411.8 746.4 453.6 746.4 453.6 704.6 453.6 662.7 453.6 620.9 453.6 579.1 453.6 537.3 453.6 495.4 495.4 495.4 537.2 495.4 579.1 495.4 620.9 495.4 662.8 495.4 704.6 495.4 746.4 495.4 746.4 537.3 746.4 579.1 746.4 620.9 746.4 662.7 746.4 704.6 746.4 746.4 788.2 746.4 830.1 746.4 871.9 746.4 871.9 704.6 830.1 704.6 788.2 704.6 788.2 662.7 788.2 620.9 788.2 579.1 788.2 537.3 788.2 495.4 830.1 495.4 830.1 453.6 788.2 453.6 746.4 453.6 704.6 453.6 662.8 453.6 620.9 453.6 579.1 453.6 537.2 453.6 495.4 453.6 453.6 453.6 411.8 453.6 369.9 453.6 369.9 495.4 411.8 495.4 411.8 537.3 411.8 579.1 411.8 620.9 411.8 662.7 411.8 704.6 369.9 704.6 328.1 704.6 328.1 746.4 369.9 746.4 411.8 746.4"/>
  <polygon points="369.9 369.9 328.1 369.9 328.1 411.8 328.1 453.6 369.9 453.6 369.9 411.8 369.9 369.9"/>
  <polygon points="328.1 830.1 328.1 788.2 328.1 746.4 286.3 746.4 286.3 788.2 286.3 830.1 286.3 871.9 328.1 871.9 328.1 830.1"/>
  <polygon points="328.1 286.3 328.1 244.4 328.1 202.6 369.9 202.6 411.8 202.6 411.8 244.4 411.8 286.3 411.8 328.1 453.6 328.1 495.4 328.1 537.2 328.1 579.1 328.1 620.9 328.1 662.8 328.1 704.6 328.1 746.4 328.1 788.2 328.1 788.2 286.3 788.2 244.4 788.2 202.6 830.1 202.6 871.9 202.6 871.9 244.4 871.9 286.3 871.9 328.1 871.9 369.9 913.7 369.9 913.7 328.1 913.7 286.3 913.7 244.4 913.7 202.6 913.7 160.8 871.9 160.8 830.1 160.8 788.2 160.8 746.4 160.8 746.4 202.6 746.4 244.4 746.4 286.3 704.6 286.3 662.8 286.3 662.8 244.4 662.8 202.6 662.8 160.8 620.9 160.8 579.1 160.8 537.2 160.8 537.2 202.6 537.2 244.4 537.2 286.3 495.4 286.3 453.6 286.3 453.6 244.4 453.6 202.6 453.6 160.8 411.8 160.8 369.9 160.8 328.1 160.8 286.3 160.8 286.3 202.6 286.3 244.4 286.3 286.3 286.3 328.1 286.3 369.9 328.1 369.9 328.1 328.1 328.1 286.3"/>
</svg>