<?xml version="1.0" encoding="UTF-8"?>
<svg width="1200pt" height="1200pt" version="1.1" viewBox="0 0 1200 1200" xmlns="http://www.w3.org/2000/svg">
 <path d="m552 972v36h-252v48h-48v36h48v48h564v-48h36v-36h-36v-48h-216v-84h84v-48h84v-36h48v-48h36v-84h48v-132h-180v-384h-36v-84h-48v-48h-168v48h-48v84h-36v384h-180v132h48v84h36v48h48v36h84v48h84zm180 84v36h-216v-36zm-180-864h48v-84h84v84h48v300h-48v-48h-84v-84h-48zm-36 384v-36h216v168h-48v48h-36v-96h36v-36h-36v-48h-96v48h-36zm36 132h-36v-48h36zm0-48v-36h96v36zm216-36h96v84h-48v84h-84v48h-264v-48h-36v-36h-48v-48h-48v-84h96v84h36v48h48v36h168v-36h48v-48h36zm-300 432v36h-36v-36z" fill-rule="evenodd"/>
</svg>
