<?xml version="1.0" encoding="UTF-8"?>
<svg width="1200pt" height="1200pt" version="1.1" viewBox="0 0 1200 1200" xmlns="http://www.w3.org/2000/svg">
 <path d="m997.76 838.65 53.027 53.027 53.023-53.027-53.023-53.023-53.027-53.023-53.062-53.062-53.023 53.062 53.023 53.023z"/>
 <path d="m997.76 944.7-53.062 53.062-53.023 53.027 53.023 53.023 53.062-53.023 53.027-53.027 53.023-53.062-53.023-53.023z"/>
 <path d="m785.64 1050.8 53.031-53.031 53.031 53.031-53.031 53.031z"/>
 <path d="m679.56 1050.8 53.031-53.031 53.031 53.031-53.031 53.031z"/>
 <path d="m96.207 573.37 52.98-52.98 530.37 530.35-52.98 52.98z"/>
 <path d="m838.65 785.62 53.027-53.023-53.027-53.062-53.023 53.062-53.023 53.023 53.023 53.023z"/>
 <path d="m255.3 202.24 53.023-53.027-53.023-53.023-53.062 53.023-53.027 53.027-53.023 53.062 53.023 53.023 53.027-53.023z"/>
 <path d="m96.188 361.36 53.031-53.031 53.031 53.031-53.031 53.031z"/>
 <path d="m96.18 467.39 53.031-53.031 53.031 53.031-53.031 53.031z"/>
 <path d="m414.38 255.3 53.023 53.023 53.062-53.023-53.062-53.062-53.023-53.027-53.023-53.023-53.027 53.023 53.027 53.027z"/>
 <path d="m361.35 414.38 53.023 53.023 53.023-53.023 53.062-53.023-53.062-53.027-53.023 53.027z"/>
 <path d="m732.75 785.62-53.25 52.875-318-318 52.875-53.25z"/>
</svg>
