<?xml version="1.0" encoding="UTF-8"?>
<svg width="1200pt" height="1200pt" version="1.1" viewBox="0 0 1200 1200" xmlns="http://www.w3.org/2000/svg">
 <path d="m1000.4 443.16h34.922v313.44h-34.922z"/>
 <path d="m965.64 756.6h34.801v69.719h-34.801z"/>
 <path d="m965.64 373.68h34.801v69.602h-34.801z"/>
 <path d="m930.84 826.32h34.801v34.801h-34.801z"/>
 <path d="m930.84 338.76h34.801v34.801h-34.801z"/>
 <path d="m896.04 861.24h34.801v34.801h-34.801z"/>
 <path d="m896.04 304.08h34.801v34.801h-34.801z"/>
 <path d="m861.12 895.92h34.922v34.922h-34.922z"/>
 <path d="m861.12 269.04h34.922v34.922h-34.922z"/>
 <path d="m826.32 930.96h34.801v34.801h-34.801z"/>
 <path d="m826.32 582.48h34.801v34.922h-34.801z"/>
 <path d="m826.32 234.36h34.801v34.801h-34.801z"/>
 <path d="m791.52 617.52h34.801v34.801h-34.801z"/>
 <path d="m791.52 547.8h34.801v34.801h-34.801z"/>
 <path d="m721.92 965.64h104.4v34.801h-104.4z"/>
 <path d="m756.72 199.44h69.602v34.801h-69.602z"/>
 <path d="m721.92 652.2h69.602v34.801h-69.602z"/>
 <path d="m721.92 512.88h69.602v34.801h-69.602z"/>
 <path d="m687 687.12h34.922v34.801h-34.922z"/>
 <path d="m687 478.2h34.922v34.801h-34.922z"/>
 <path d="m478.08 1000.6h243.84v34.801h-243.84z"/>
 <path d="m617.4 721.92h69.602v34.801h-69.602z"/>
 <path d="m617.4 443.16h69.602v34.922h-69.602z"/>
 <path d="m582.6 756.6h34.801v34.922h-34.801z"/>
 <path d="m582.6 408.48h34.801v34.801h-34.801z"/>
 <path d="m512.88 791.64h69.719v34.801h-69.719z"/>
 <path d="m512.88 373.68h69.719v34.801h-69.719z"/>
 <path d="m443.28 164.64h313.44v34.801h-313.44z"/>
 <path d="m373.56 965.64h104.52v34.801h-104.52z"/>
 <path d="m478.08 373.68h34.801v-34.918h-69.598v522.48h69.598v-34.918h-34.801z"/>
 <path d="m373.56 199.44h69.719v34.801h-69.719z"/>
 <path d="m338.76 930.96h34.801v34.801h-34.801z"/>
 <path d="m338.76 234.36h34.801v34.801h-34.801z"/>
 <path d="m303.96 895.92h34.801v34.922h-34.801z"/>
 <path d="m303.96 269.04h34.801v34.922h-34.801z"/>
 <path d="m269.16 861.24h34.801v34.801h-34.801z"/>
 <path d="m269.16 304.08h34.801v34.801h-34.801z"/>
 <path d="m234.24 826.32h34.922v34.801h-34.922z"/>
 <path d="m234.24 338.76h34.922v34.801h-34.922z"/>
 <path d="m199.44 756.6h34.801v69.719h-34.801z"/>
 <path d="m199.44 373.68h34.801v69.602h-34.801z"/>
 <path d="m164.64 443.16h34.801v313.44h-34.801z"/>
</svg>
