<?xml version="1.0" encoding="UTF-8"?>
<svg width="1200pt" height="1200pt" version="1.1" viewBox="0 0 1200 1200" xmlns="http://www.w3.org/2000/svg">
 <path d="m484.78 792v76.781h-76.781v-76.781zm-153.56-537.61h-76.828v307.22h307.22v-76.828h-153.61v-76.781h-76.781zm153.56 614.39v76.781l230.44 0.046874v-76.828zm230.44-537.56v76.781h76.781v-76.781zm-384 384v76.781h76.781v-76.781zm76.781-307.22h76.781v-76.781h-76.781zm76.781-153.61v76.781l230.44 0.046875v-76.828zm230.44 614.39h76.781v-76.781h-76.781zm-460.82-230.39v76.781h76.781l0.046875-76.781zm537.61-230.39v76.781h76.781v-76.781zm0 384h76.781v-76.781h-76.781zm76.781-307.22v230.44h76.781l0.046875-230.44z"/>
</svg>
