<?xml version="1.0" encoding="UTF-8"?>
<svg id="Layer_1" xmlns="http://www.w3.org/2000/svg" version="1.1" viewBox="0 0 1200 1200">
  <!-- Generator: Adobe Illustrator 29.7.1, SVG Export Plug-In . SVG Version: 2.1.1 Build 8)  -->
  <path d="M1014.6,202v-33.2h-364.8v33.2h-33.2v796h33.2v33.2h364.8v-33.2h33.2V202h-33.2ZM1014.6,268.3v696.5h-33.2v33.2h-298.5v-33.2h-33.2V235.1h33.2v-33.2h298.5v33.2h33.2v33.2Z"/>
  <polygon points="948.3 832.2 915.1 832.2 915.1 865.3 881.9 865.3 881.9 898.5 915.1 898.5 915.1 931.7 948.3 931.7 948.3 898.5 981.4 898.5 981.4 865.3 948.3 865.3 948.3 832.2"/>
  <polygon points="948.3 666.3 915.1 666.3 915.1 699.5 881.9 699.5 881.9 732.7 915.1 732.7 915.1 765.8 948.3 765.8 948.3 732.7 981.4 732.7 981.4 699.5 948.3 699.5 948.3 666.3"/>
  <polygon points="915.1 600 881.9 600 848.8 600 815.6 600 782.4 600 749.2 600 716.1 600 682.9 600 682.9 633.2 716.1 633.2 749.2 633.2 782.4 633.2 815.6 633.2 848.8 633.2 881.9 633.2 915.1 633.2 948.3 633.2 981.4 633.2 981.4 600 948.3 600 915.1 600"/>
  <polygon points="948.3 467.3 915.1 467.3 915.1 500.5 881.9 500.5 881.9 533.7 915.1 533.7 915.1 566.8 948.3 566.8 948.3 533.7 981.4 533.7 981.4 500.5 948.3 500.5 948.3 467.3"/>
  <polygon points="948.3 235.1 915.1 235.1 915.1 268.3 881.9 268.3 881.9 301.5 915.1 301.5 915.1 334.7 948.3 334.7 948.3 301.5 981.4 301.5 981.4 268.3 948.3 268.3 948.3 235.1"/>
  <polygon points="782.4 401 815.6 401 815.6 434.2 848.8 434.2 848.8 401 881.9 401 881.9 367.8 848.8 367.8 848.8 334.7 815.6 334.7 815.6 367.8 782.4 367.8 782.4 401"/>
  <polygon points="749.2 832.2 716.1 832.2 716.1 865.3 682.9 865.3 682.9 898.5 716.1 898.5 716.1 931.7 749.2 931.7 749.2 898.5 782.4 898.5 782.4 865.3 749.2 865.3 749.2 832.2"/>
  <polygon points="749.2 666.3 716.1 666.3 716.1 699.5 682.9 699.5 682.9 732.7 716.1 732.7 716.1 765.8 749.2 765.8 749.2 732.7 782.4 732.7 782.4 699.5 749.2 699.5 749.2 666.3"/>
  <polygon points="716.1 566.8 749.2 566.8 749.2 533.7 782.4 533.7 782.4 500.5 749.2 500.5 749.2 467.3 716.1 467.3 716.1 500.5 682.9 500.5 682.9 533.7 716.1 533.7 716.1 566.8"/>
  <polygon points="716.1 334.7 749.2 334.7 749.2 301.5 782.4 301.5 782.4 268.3 749.2 268.3 749.2 235.1 716.1 235.1 716.1 268.3 682.9 268.3 682.9 301.5 716.1 301.5 716.1 334.7"/>
  <path d="M550.2,168.8H185.4v33.2h-33.2v796h33.2v33.2h364.8v-33.2h33.2V202h-33.2v-33.2ZM550.2,235.1v729.7h-33.2v33.2H218.6v-33.2h-33.2V235.1h33.2v-33.2h298.5v33.2h33.2Z"/>
  <polygon points="483.9 865.3 450.8 865.3 450.8 898.5 417.6 898.5 417.6 931.7 450.8 931.7 450.8 964.8 483.9 964.8 483.9 931.7 517.1 931.7 517.1 898.5 483.9 898.5 483.9 865.3"/>
  <polygon points="483.9 633.2 450.8 633.2 450.8 666.3 417.6 666.3 417.6 699.5 450.8 699.5 450.8 732.7 483.9 732.7 483.9 699.5 517.1 699.5 517.1 666.3 483.9 666.3 483.9 633.2"/>
  <polygon points="450.8 533.7 417.6 533.7 384.4 533.7 351.2 533.7 318.1 533.7 284.9 533.7 251.8 533.7 218.6 533.7 218.6 566.8 251.8 566.8 284.9 566.8 318.1 566.8 351.2 566.8 384.4 566.8 417.6 566.8 450.8 566.8 483.9 566.8 517.1 566.8 517.1 533.7 483.9 533.7 450.8 533.7"/>
  <polygon points="483.9 235.1 450.8 235.1 450.8 268.3 417.6 268.3 417.6 301.5 450.8 301.5 450.8 334.7 483.9 334.7 483.9 301.5 517.1 301.5 517.1 268.3 483.9 268.3 483.9 235.1"/>
  <polygon points="318.1 434.2 351.2 434.2 351.2 467.3 384.4 467.3 384.4 434.2 417.6 434.2 417.6 401 384.4 401 384.4 367.8 351.2 367.8 351.2 401 318.1 401 318.1 434.2"/>
  <polygon points="284.9 865.3 251.8 865.3 251.8 898.5 218.6 898.5 218.6 931.7 251.8 931.7 251.8 964.8 284.9 964.8 284.9 931.7 318.1 931.7 318.1 898.5 284.9 898.5 284.9 865.3"/>
  <polygon points="284.9 633.2 251.8 633.2 251.8 666.3 218.6 666.3 218.6 699.5 251.8 699.5 251.8 732.7 284.9 732.7 284.9 699.5 318.1 699.5 318.1 666.3 284.9 666.3 284.9 633.2"/>
  <polygon points="251.8 334.7 284.9 334.7 284.9 301.5 318.1 301.5 318.1 268.3 284.9 268.3 284.9 235.1 251.8 235.1 251.8 268.3 218.6 268.3 218.6 301.5 251.8 301.5 251.8 334.7"/>
</svg>