<?xml version="1.0" encoding="UTF-8"?>
<svg width="1200pt" height="1200pt" version="1.1" viewBox="0 0 1200 1200" xmlns="http://www.w3.org/2000/svg">
 <path d="m232.92 1023.5h56.52v56.52h-56.52z"/>
 <path d="m289.44 1023.5h56.52v56.52h-56.52z"/>
 <path d="m176.52 967.08h56.52v56.52h-56.52z"/>
 <path d="m345.84 967.08h56.52v56.52h-56.52z"/>
 <path d="m120 910.56h56.52v56.52h-56.52z"/>
 <path d="m402.36 910.56h56.52v56.52h-56.52z"/>
 <path d="m120 854.16h56.52v56.52h-56.52z"/>
 <path d="m458.88 854.16h56.52v56.52h-56.52z"/>
 <path d="m120 797.64h56.52v56.52h-56.52z"/>
 <path d="m515.28 797.64h56.52v56.52h-56.52z"/>
 <path d="m176.52 741.12h56.52v56.52h-56.52z"/>
 <path d="m232.92 684.72h56.52v56.52h-56.52z"/>
 <path d="m515.28 684.72h56.52v56.52h-56.52z"/>
 <path d="m571.8 684.72h56.52v56.52h-56.52z"/>
 <path d="m628.2 684.72h56.52v56.52h-56.52z"/>
 <path d="m684.72 684.72h56.52v56.52h-56.52z"/>
 <path d="m289.44 628.2h56.52v56.52h-56.52z"/>
 <path d="m458.88 628.2h56.52v56.52h-56.52z"/>
 <path d="m741.12 628.2h56.52v56.52h-56.52z"/>
 <path d="m345.84 571.8h56.52v56.52h-56.52z"/>
 <path d="m797.64 571.8h56.52v56.52h-56.52z"/>
 <path d="m402.36 515.28h56.52v56.52h-56.52z"/>
 <path d="m684.72 515.28h56.52v56.52h-56.52z"/>
 <path d="m854.16 515.28h56.52v56.52h-56.52z"/>
 <path d="m458.88 458.88h56.52v56.52h-56.52z"/>
 <path d="m515.28 458.88h56.52v56.52h-56.52z"/>
 <path d="m571.8 458.88h56.52v56.52h-56.52z"/>
 <path d="m628.2 458.88h56.52v56.52h-56.52z"/>
 <path d="m910.56 458.88h56.52v56.52h-56.52z"/>
 <path d="m967.08 402.36h56.52v56.52h-56.52z"/>
 <path d="m628.2 345.84h56.52v56.52h-56.52z"/>
 <path d="m1023.5 345.84h56.52v56.52h-56.52z"/>
 <path d="m684.72 289.44h56.52v56.52h-56.52z"/>
 <path d="m1023.5 289.44h56.52v56.52h-56.52z"/>
 <path d="m741.12 232.92h56.52v56.52h-56.52z"/>
 <path d="m1023.5 232.92h56.52v56.52h-56.52z"/>
 <path d="m797.64 176.52h56.52v56.52h-56.52z"/>
 <path d="m967.08 176.52h56.52v56.52h-56.52z"/>
 <path d="m854.16 120h56.52v56.52h-56.52z"/>
 <path d="m910.56 120h56.52v56.52h-56.52z"/>
</svg>
