<?xml version="1.0" encoding="UTF-8"?>
<svg width="1200pt" height="1200pt" version="1.1" viewBox="0 0 1200 1200" xmlns="http://www.w3.org/2000/svg">
 <path d="m553.85 230.77h230.77v46.152h-230.77z"/>
 <path d="m784.62 276.92h46.152v46.152h-46.152z"/>
 <path d="m738.46 323.08h46.152v46.152h-46.152z"/>
 <path d="m692.31 369.23h46.152v92.309h-46.152z"/>
 <path d="m738.46 461.54h92.309v46.152h-92.309z"/>
 <path d="m830.77 415.38h46.152v46.152h-46.152z"/>
 <path d="m876.92 369.23h46.152v46.152h-46.152z"/>
 <path d="m923.08 415.38h46.152v230.77h-46.152z"/>
 <path d="m507.69 276.92h46.152v46.152h-46.152z"/>
 <path d="m461.54 323.08h46.152v46.152h-46.152z"/>
 <path d="m415.38 369.23h46.152v276.92h-46.152z"/>
 <path d="m876.92 646.15h46.152v46.152h-46.152z"/>
 <path d="m830.77 692.31h46.152v46.152h-46.152z"/>
 <path d="m369.23 646.15h46.152v46.152h-46.152z"/>
 <path d="m323.08 692.31h46.152v46.152h-46.152z"/>
 <path d="m276.92 738.46h46.152v46.152h-46.152z"/>
 <path d="m230.77 784.62h46.152v46.152h-46.152z"/>
 <path d="m461.54 830.77h46.152v46.152h-46.152z"/>
 <path d="m507.69 784.62h46.152v46.152h-46.152z"/>
 <path d="m415.38 876.92h46.152v46.152h-46.152z"/>
 <path d="m369.23 923.08h46.152v46.152h-46.152z"/>
 <path d="m553.85 738.46h46.152v46.152h-46.152z"/>
 <path d="m600 738.46h230.77v46.152h-230.77z"/>
</svg>
